<svg id="visual" viewBox="0 0 960 540" width="960" height="540" xmlns="http://www.w3.org/2000/svg" xmlns:xlink="http://www.w3.org/1999/xlink" version="1.1"><rect x="0" y="0" width="960" height="540" fill="#fff"></rect><path d="M212 0L190 22.5C168 45 124 90 151.2 135C178.3 180 276.7 225 321.3 270C366 315 357 360 364.7 405C372.3 450 396.7 495 408.8 517.5L421 540L0 540L0 517.5C0 495 0 450 0 405C0 360 0 315 0 270C0 225 0 180 0 135C0 90 0 45 0 22.5L0 0Z" fill="#fcf493" stroke-linecap="round" stroke-linejoin="miter"></path></svg>